HIERARCHY
ROOT Hips
{
	OFFSET	0.00	0.00	0.00
	CHANNELS 6 Xposition Yposition Zposition Zrotation Xrotation Yrotation
	JOINT LeftUpLeg
	{
		OFFSET	 0.126116	-0.014019	-0.065224
		CHANNELS 3 Zrotation Xrotation Yrotation
		JOINT LeftLeg
		{
			OFFSET	 0.000000	 0.000000	 0.569914
			CHANNELS 3 Zrotation Xrotation Yrotation
			JOINT LeftFoot
			{
				OFFSET	 0.000000	 0.000000	 0.544423
				CHANNELS 3 Zrotation Xrotation Yrotation
				JOINT LeftToeBase
				{
					OFFSET	 0.000000	 0.000000	 0.207117
					CHANNELS 3 Zrotation Xrotation Yrotation
					End Site
					{
						OFFSET	 0.000000	 0.000000	 0.207117
					}
				}
			}
		}
	}
	JOINT RightUpLeg
	{
		OFFSET	-0.124023	-0.008373	-0.065224
		CHANNELS 3 Zrotation Xrotation Yrotation
		JOINT RightLeg
		{
			OFFSET	 0.000000	 0.000000	 0.570047
			CHANNELS 3 Zrotation Xrotation Yrotation
			JOINT RightFoot
			{
				OFFSET	 0.000000	 0.000000	 0.544354
				CHANNELS 3 Zrotation Xrotation Yrotation
				JOINT RightToeBase
				{
					OFFSET	 0.000000	 0.000000	 0.207540
					CHANNELS 3 Zrotation Xrotation Yrotation
					End Site
					{
						OFFSET	 0.000000	 0.000000	 0.207540
					}
				}
			}
		}
	}
	JOINT Spine
	{
		OFFSET	 0.000184	-0.007763	 0.117403
		CHANNELS 3 Zrotation Xrotation Yrotation
		JOINT Spine1
		{
			OFFSET	 0.000000	 0.000000	 0.137269
			CHANNELS 3 Zrotation Xrotation Yrotation
			JOINT Spine2
			{
				OFFSET	 0.000000	 0.000000	 0.156879
				CHANNELS 3 Zrotation Xrotation Yrotation
				JOINT LeftShoulder
				{
					OFFSET	 0.080501	-0.002496	 0.160144
					CHANNELS 3 Zrotation Xrotation Yrotation
					JOINT LeftArm
					{
						OFFSET	 0.000000	 0.000000	 0.164363
						CHANNELS 3 Zrotation Xrotation Yrotation
						JOINT LeftForeArm
						{
							OFFSET	 0.000000	 0.000000	 0.364576
							CHANNELS 3 Zrotation Xrotation Yrotation
							JOINT LeftHand
							{
								OFFSET	 0.000000	 0.000000	 0.360812
								CHANNELS 3 Zrotation Xrotation Yrotation
								JOINT LeftHandIndex1
								{
									OFFSET	 0.000000	 0.000000	 0.086006
									CHANNELS 3 Zrotation Xrotation Yrotation
									JOINT LeftHandIndex2
									{
										OFFSET	 0.000000	 0.000000	 0.047236
										CHANNELS 3 Zrotation Xrotation Yrotation
										JOINT LeftHandIndex3
										{
											OFFSET	-0.004284	-0.000551	 0.038166
											CHANNELS 3 Zrotation Xrotation Yrotation
											End Site
											{
												OFFSET	-0.004284	-0.000551	 0.038166
											}
										}
									}
								}
							}
						}
					}
				}
				JOINT Neck
				{
					OFFSET	 0.000000	 0.000000	 0.176489
					CHANNELS 3 Zrotation Xrotation Yrotation
					JOINT Head
					{
						OFFSET	 0.000000	-0.001747	 0.077940
						CHANNELS 3 Zrotation Xrotation Yrotation
						End Site
						{
							OFFSET	 0.000000	-0.001747	 0.077940
						}
					}
				}
				JOINT RightShoulder
				{
					OFFSET	-0.080363	 0.000306	 0.159706
					CHANNELS 3 Zrotation Xrotation Yrotation
					JOINT RightArm
					{
						OFFSET	 0.000000	 0.000000	 0.164196
						CHANNELS 3 Zrotation Xrotation Yrotation
						JOINT RightForeArm
						{
							OFFSET	 0.000000	 0.000000	 0.365611
							CHANNELS 3 Zrotation Xrotation Yrotation
							JOINT RightHand
							{
								OFFSET	 0.000000	 0.000000	 0.360648
								CHANNELS 3 Zrotation Xrotation Yrotation
								JOINT RightHandIndex1
								{
									OFFSET	 0.000000	 0.000000	 0.069977
									CHANNELS 3 Zrotation Xrotation Yrotation
									JOINT RightHandIndex2
									{
										OFFSET	 0.000000	 0.000000	 0.052305
										CHANNELS 3 Zrotation Xrotation Yrotation
										JOINT RightHandIndex3
										{
											OFFSET	 0.009002	-0.000782	 0.042196
											CHANNELS 3 Zrotation Xrotation Yrotation
											End Site
											{
												OFFSET	 0.009002	-0.000782	 0.042196
											}
										}
									}
								}
							}
						}
					}
				}
			}
		}
	}
}
MOTION
Frames:    5
Frame Time: 0.03333334
-0.000251	 0.017264	 1.305745	-0.000523	 0.017799	 0.001278	-5.142393	-1.562641	 178.954300	 1.475119	-11.807230	-0.689048	-5.166406	 64.762200	-0.983195	-2.385833	 28.452760	 0.000004	 5.023107	-2.030744	-178.943100	-1.455791	-12.287270	 0.704727	 5.042656	 64.843400	 0.953727	 2.384658	 28.388730	 0.000004	-13.905680	 1.717395	 0.074749	 0.151772	 7.072328	 0.074462	-0.401753	-9.033791	-0.118718	-91.776210	 78.527490	-180.000000	 55.478020	 39.343940	-53.339180	-20.555190	 2.317716	-9.576952	-34.512860	 4.800770	-3.773997	-2.635965	 4.993658	 6.788941	-5.165319	 0.784187	 3.516649	-5.225038	 0.466231	 0.424329	-0.000002	-3.783157	-0.089647	-0.353843	 2.993328	 0.009231	 89.782140	 78.203900	 180.000000	 0.398799	 12.793750	 104.269200	-21.916720	 1.975910	 9.658978	 9.999696	 3.179722	-6.499357	 6.112037	 4.509576	-0.364401	 4.968462	 1.518543	-9.347576	 5.168945	 0.703820	 2.021906
-0.000293	 0.017176	 1.307270	-0.000812	 0.017993	-0.012017	-5.009236	-1.550585	 178.955600	 1.475551	-11.772240	-0.686948	-5.161991	 64.501320	-0.979604	-2.385833	 28.452760	 0.000004	 4.891803	-2.043436	-178.922400	-1.455533	-12.307600	 0.705930	 5.042263	 64.611020	 0.946020	 2.384658	 28.388730	 0.000004	-13.521430	 1.724011	 0.064424	 0.288618	 7.052365	 0.125044	-0.812868	-9.005956	-0.232136	-91.776150	 78.527450	 180.000000	 55.510870	 39.337970	-53.380050	-20.724880	 2.375618	-9.698468	-33.867290	 2.759493	-4.014832	-2.635965	 4.993658	 6.788941	-5.165319	 0.784187	 3.516649	-5.225038	 0.466231	 0.424329	-0.000002	-3.783157	-0.089647	-0.738882	 3.000278	 0.019336	 89.782100	 78.203890	 180.000000	 0.449804	 12.920500	 104.287800	-21.850680	 2.033381	 9.781311	 9.012184	 1.199258	-6.297650	 6.112037	 4.509576	-0.364401	 4.968462	 1.518543	-9.347576	 5.168945	 0.703820	 2.021906
-0.000330	 0.017072	 1.308900	-0.001052	 0.017839	-0.027493	-4.862818	-1.538802	 178.958200	 1.475974	-11.737550	-0.684865	-5.157080	 64.216580	-0.975484	-2.385833	 28.452760	 0.000004	 4.747360	-2.058820	-178.899200	-1.455203	-12.333710	 0.707476	 5.041695	 64.357640	 0.937481	 2.384658	 28.388730	 0.000004	-13.049440	 1.736080	 0.053486	 0.437206	 7.015564	 0.181657	-1.260105	-8.954175	-0.355555	-91.776180	 78.527420	 180.000000	 55.575420	 39.332730	-53.479070	-20.911190	 2.440419	-9.832293	-33.119160	-0.187538	-4.275603	-2.635965	 4.993658	 6.788941	-5.165319	 0.784187	 3.516649	-5.225038	 0.466231	 0.424329	-0.000002	-3.783157	-0.089647	-1.158213	 3.013570	 0.030453	 89.782140	 78.203900	 180.000000	 0.432041	 13.075040	 104.282400	-21.788470	 2.097064	 9.918920	 7.768678	-1.654408	-6.100752	 6.112037	 4.509576	-0.364401	 4.968462	 1.518543	-9.347576	 5.168945	 0.703820	 2.021906
-0.000343	 0.016961	 1.310280	-0.001182	 0.017374	-0.041945	-4.731287	-1.529624	 178.961400	 1.476308	-11.709990	-0.683214	-5.152746	 63.962640	-0.971545	-2.385833	 28.452760	 0.000004	 4.617461	-2.073607	-178.878000	-1.454874	-12.359780	 0.709019	 5.041004	 64.131390	 0.929834	 2.384658	 28.388730	 0.000004	-12.574570	 1.751127	 0.043902	 0.568408	 6.969553	 0.233193	-1.655804	-8.889212	-0.464499	-91.776160	 78.527470	 180.000000	 55.661470	 39.336950	-53.626360	-21.074460	 2.499098	-9.950913	-32.418000	-3.489906	-4.472690	-2.635965	 4.993658	 6.788941	-5.165319	 0.784187	 3.516649	-5.225038	 0.466231	 0.424329	-0.000002	-3.783157	-0.089647	-1.529864	 3.030611	 0.040458	 89.782140	 78.203890	 180.000000	 0.432629	 13.251560	 104.256800	-21.743800	 2.154195	 10.034730	 6.477640	-4.816669	-5.991743	 6.112037	 4.509576	-0.364401	 4.968462	 1.518543	-9.347576	 5.168945	 0.703820	 2.021906
-0.000337	 0.016835	 1.311541	-0.001221	 0.016622	-0.056641	-4.601416	-1.521788	 178.965300	 1.476604	-11.685920	-0.681767	-5.148520	 63.713460	-0.967467	-2.385833	 28.452760	 0.000004	 4.489019	-2.089194	-178.856900	-1.454514	-12.388130	 0.710696	 5.040169	 63.909320	 0.922267	 2.384658	 28.388730	 0.000004	-12.052160	 1.769804	 0.034618	 0.695264	 6.912270	 0.284643	-2.039181	-8.808303	-0.569634	-91.776180	 78.527470	 180.000000	 55.778360	 39.351950	-53.836350	-21.229140	 2.554232	-10.061490	-31.698150	-7.347614	-4.595040	-2.635965	 4.993658	 6.788941	-5.165319	 0.784187	 3.516649	-5.225038	 0.466231	 0.424329	-0.000002	-3.783157	-0.089647	-1.890696	 3.052054	 0.050359	 89.782120	 78.203870	 180.000000	 0.478522	 13.467460	 104.215400	-21.703710	 2.208572	 10.146130	 4.581067	-8.317797	-5.989149	 6.112037	 4.509576	-0.364401	 4.968462	 1.518543	-9.347576	 5.168945	 0.703820	 2.021906
